<svg width="80" height="80" viewBox="0 0 80 80" fill="none" xmlns="http://www.w3.org/2000/svg">
<circle cx="40" cy="40" r="40" fill="#FADEDE"/>
<path d="M38.1648 39.0287L38.0514 39.1227C37.7178 39.399 37.6713 39.8935 37.9478 40.2271C38.1029 40.4144 38.3267 40.5112 38.5522 40.5112C38.7285 40.5112 38.9058 40.452 39.0522 40.3308L39.1657 40.2368C39.4992 39.9605 39.5457 39.466 39.2692 39.1324C38.9929 38.7986 38.4983 38.7523 38.1648 39.0287Z" fill="black"/>
<path d="M40.5433 38.1232C40.6984 38.3104 40.9222 38.4072 41.1477 38.4072C41.324 38.4072 41.5014 38.3481 41.6478 38.2268L45.0294 35.425C45.363 35.1487 45.4093 34.6543 45.1329 34.3206C44.8565 33.9869 44.362 33.9407 44.0285 34.2171L40.6469 37.0189C40.3133 37.295 40.2669 37.7896 40.5433 38.1232Z" fill="black"/>
<path d="M55.4592 32.8934C56.6027 31.4878 57.2244 29.7468 57.2244 27.9101C57.2244 25.7962 56.4012 23.8089 54.9065 22.3141C52.0176 19.4252 47.4328 19.2412 44.3275 21.7617L44.0397 21.4739C43.7334 21.1676 43.2368 21.1676 42.9304 21.4739C42.624 21.7802 42.624 22.2769 42.9304 22.5833L43.2128 22.8657C42.0413 24.2797 41.4382 26.0088 41.4029 27.7476L30.1495 41.3304C30.1478 41.3324 30.1461 41.3345 30.1445 41.3366C28.9924 42.7565 28.9381 44.7221 29.9265 46.185L23.9254 52.1861C22.3922 53.7192 22.3922 56.2137 23.9254 57.7469C24.668 58.4895 25.6555 58.8986 26.7057 58.8986C27.756 58.8986 28.7434 58.4896 29.486 57.7469L31.0002 56.2327C31.4466 55.7864 32.04 55.5406 32.6713 55.5406C33.3027 55.5406 33.8961 55.7865 34.3425 56.2328L37.8798 59.7701C38.033 59.9233 38.2337 59.9998 38.4344 59.9998C38.6351 59.9998 38.836 59.9232 38.989 59.7701C39.2954 59.4637 39.2954 58.9671 38.989 58.6608L35.4518 55.1235C34.7091 54.3809 33.7216 53.9719 32.6714 53.9719C31.6212 53.9719 30.6338 54.3809 29.8911 55.1235L28.3769 56.6377C27.9306 57.0841 27.3371 57.3298 26.7058 57.3298C26.0746 57.3298 25.481 57.084 25.0347 56.6377C24.1132 55.7163 24.1132 54.217 25.0347 53.2956L31.0362 47.2941C31.7209 47.7567 32.5155 47.9914 33.313 47.9914C34.2193 47.9914 35.1291 47.6891 35.8844 47.0764C35.8865 47.0747 35.8885 47.073 35.8906 47.0713L49.4726 35.8185C51.2116 35.7833 52.941 35.1796 54.3552 34.0079L54.6377 34.2904C54.7909 34.4436 54.9916 34.5202 55.1923 34.5202C55.393 34.5202 55.5939 34.4436 55.7469 34.2904C56.0533 33.9841 56.0533 33.4874 55.7469 33.181L55.4592 32.8934ZM34.8927 45.8604C33.8907 46.671 32.4488 46.5953 31.5371 45.6836C30.6254 44.7718 30.5496 43.33 31.3602 42.3279L42.2366 29.2006L48.0202 34.9842L34.8927 45.8604ZM49.502 34.2474L42.9733 27.7188C43.0126 26.3922 43.4639 25.0761 44.3284 23.9812L53.2396 32.8925C52.1446 33.7569 50.8284 34.2081 49.502 34.2474ZM54.3415 31.7756L45.4457 22.8799C46.5809 22.0065 47.9453 21.568 49.3106 21.568C50.9355 21.568 52.5603 22.1865 53.7973 23.4235C54.9957 24.6218 55.6558 26.2153 55.6558 27.9102C55.6558 29.327 55.193 30.6721 54.3415 31.7756Z" fill="black"/>
</svg>
