<svg width="80" height="80" viewBox="0 0 80 80" fill="none" xmlns="http://www.w3.org/2000/svg">
<circle cx="40" cy="40" r="40" fill="#B3686E"/>
<path d="M24.37 31.97C23.776 34.616 22.732 37.208 21.4 38.882C21.706 39.08 22.246 39.512 22.48 39.746C23.866 37.91 25 35.138 25.702 32.258L24.37 31.97ZM24.064 39.602C23.56 41.762 22.696 43.904 21.58 45.29C21.904 45.452 22.48 45.812 22.75 46.028C23.848 44.516 24.82 42.23 25.378 39.872L24.064 39.602ZM24.208 35.354L23.686 36.614H32.308V35.354H24.208ZM26.998 35.876V46.802C26.998 47.036 26.926 47.108 26.692 47.108C26.44 47.108 25.666 47.126 24.82 47.09C25.018 47.486 25.216 48.08 25.306 48.458C26.422 48.458 27.196 48.422 27.682 48.188C28.186 47.972 28.348 47.576 28.348 46.802V35.876H26.998ZM29.644 39.872C30.634 41.762 31.534 44.3 31.822 45.956L33.1 45.524C32.794 43.85 31.894 41.366 30.85 39.476L29.644 39.872ZM31.912 35.354V35.552C31.732 36.74 31.498 38.252 31.3 39.152L32.47 39.368C32.704 38.396 33.01 36.848 33.262 35.516L32.326 35.318L32.092 35.354H31.912ZM20.752 31.952C19.744 34.688 18.052 37.388 16.27 39.134C16.522 39.44 16.9 40.16 17.044 40.466C18.988 38.45 20.842 35.408 22.03 32.348L20.752 31.952ZM18.88 36.596V48.422H20.176V35.336L20.14 35.318L18.88 36.596ZM42.046 32.816V34.076H49.948V32.816H42.046ZM41.434 39.134V40.43H51.334V39.134H41.434ZM45.682 36.74V46.73C45.682 47 45.592 47.09 45.286 47.108C44.962 47.126 43.954 47.126 42.82 47.09C43 47.45 43.234 48.044 43.306 48.404C44.746 48.422 45.682 48.386 46.276 48.17C46.834 47.954 47.032 47.558 47.032 46.748V36.74H45.682ZM49.462 32.816V33.122C48.742 34.292 47.248 35.984 45.952 36.956C46.186 37.136 46.564 37.496 46.762 37.748C48.202 36.668 49.876 34.922 50.956 33.392L50.074 32.744L49.786 32.816H49.462ZM34.774 35.606V36.866H40.696V35.606H34.774ZM37.492 31.898C36.88 35.318 35.8 40.142 35.008 42.896L36.142 43.49C36.952 40.502 38.086 35.642 38.77 32.042L37.492 31.898ZM35.674 42.32C37.69 43.49 40.012 45.326 41.092 46.676L41.902 45.578C40.822 44.246 38.446 42.518 36.43 41.384L35.674 42.32ZM40.246 35.606V35.876C39.796 41.996 37.924 45.812 34.918 47.396C35.206 47.666 35.584 48.152 35.764 48.476C39.076 46.496 41.038 42.68 41.524 35.714L40.714 35.552L40.462 35.606H40.246ZM60.406 42.662H61.576L61.936 35.678L61.99 33.536H59.992L60.046 35.678L60.406 42.662ZM61 47.09C61.63 47.09 62.152 46.64 62.152 45.92C62.152 45.2 61.63 44.714 61 44.714C60.352 44.714 59.83 45.2 59.83 45.92C59.83 46.64 60.352 47.09 61 47.09Z" fill="white"/>
</svg>
