<svg width="80" height="80" viewBox="0 0 80 80" fill="none" xmlns="http://www.w3.org/2000/svg">
<circle cx="40" cy="40" r="40" fill="#D2ECFF"/>
<path d="M58.75 21.25H29.5833C28.4323 21.25 27.5 22.1823 27.5 23.3333V30.6281H60.8333V23.3333C60.8333 22.1823 59.901 21.25 58.75 21.25Z" fill="url(#paint0_linear_162_572)"/>
<path d="M27.5 49.4313V56.6667C27.5 57.8177 28.4323 58.75 29.5833 58.75H58.75C59.901 58.75 60.8333 57.8177 60.8333 56.6667V49.4313H27.5Z" fill="url(#paint1_linear_162_572)"/>
<path d="M27.5 30.6282H60.8333V40.0053H27.5V30.6282Z" fill="url(#paint2_linear_162_572)"/>
<path d="M27.5 40.0052H60.8333V49.4323H27.5V40.0052Z" fill="url(#paint3_linear_162_572)"/>
<path opacity="0.05" d="M38.249 28.5416H27.5V53.5416H38.249C40.3667 53.5416 42.0833 51.825 42.0833 49.7073V32.376C42.0833 30.2583 40.3667 28.5416 38.249 28.5416Z" fill="black"/>
<path opacity="0.07" d="M38.1385 52.5H27.5V28.8885H38.1385C39.9344 28.8885 41.3896 30.3438 41.3896 32.1396V49.249C41.3885 51.0448 39.9333 52.5 38.1385 52.5Z" fill="black"/>
<path opacity="0.09" d="M38.0271 51.4583H27.5V29.2365H38.0271C39.5 29.2365 40.6938 30.4302 40.6938 31.9031V48.7917C40.6948 50.2646 39.5 51.4583 38.0271 51.4583Z" fill="black"/>
<path d="M37.9167 50.4167H21.25C20.099 50.4167 19.1667 49.4844 19.1667 48.3334V31.6667C19.1667 30.5157 20.099 29.5834 21.25 29.5834H37.9167C39.0677 29.5834 40 30.5157 40 31.6667V48.3334C40 49.4844 39.0677 50.4167 37.9167 50.4167Z" fill="url(#paint4_linear_162_572)"/>
<path d="M34.1698 34.7916L32.5594 42.3583L30.775 34.7916H28.4969L26.6563 42.5927L24.9969 34.7916H22.9594L25.401 45.2083H27.851L29.6354 37.1989L31.4208 45.2083H33.7656L36.2073 34.7916H34.1698Z" fill="white"/>
<defs>
<linearGradient id="paint0_linear_162_572" x1="44.1667" y1="30.5896" x2="44.1667" y2="21.7187" gradientUnits="userSpaceOnUse">
<stop stop-color="#42A3F2"/>
<stop offset="1" stop-color="#42A4EB"/>
</linearGradient>
<linearGradient id="paint1_linear_162_572" x1="44.1667" y1="58.75" x2="44.1667" y2="49.4313" gradientUnits="userSpaceOnUse">
<stop stop-color="#11408A"/>
<stop offset="1" stop-color="#103F8F"/>
</linearGradient>
<linearGradient id="paint2_linear_162_572" x1="44.1667" y1="-1.10411" x2="44.1667" y2="-1.16766" gradientUnits="userSpaceOnUse">
<stop stop-color="#3079D6"/>
<stop offset="1" stop-color="#297CD2"/>
</linearGradient>
<linearGradient id="paint3_linear_162_572" x1="27.5" y1="44.7188" x2="60.8333" y2="44.7188" gradientUnits="userSpaceOnUse">
<stop stop-color="#1D59B3"/>
<stop offset="1" stop-color="#195BBC"/>
</linearGradient>
<linearGradient id="paint4_linear_162_572" x1="19.9417" y1="30.3584" x2="39.4729" y2="49.8886" gradientUnits="userSpaceOnUse">
<stop stop-color="#256AC2"/>
<stop offset="1" stop-color="#1247AD"/>
</linearGradient>
</defs>
</svg>
