<svg width="80" height="80" viewBox="0 0 80 80" fill="none" xmlns="http://www.w3.org/2000/svg">
<circle cx="40" cy="40" r="40" fill="#ECECEA"/>
<path d="M15.878 47V32.15H17.246V38.954H25.355V32.15H26.714V47H25.355V40.16H17.246V47H15.878ZM35.0047 47.288C34.1407 47.288 33.3607 47.078 32.6647 46.658C31.9747 46.232 31.4257 45.65 31.0177 44.912C30.6157 44.174 30.4147 43.331 30.4147 42.383C30.4147 41.447 30.6127 40.613 31.0087 39.881C31.4107 39.143 31.9567 38.561 32.6467 38.135C33.3427 37.709 34.1287 37.496 35.0047 37.496C35.8387 37.496 36.5947 37.691 37.2727 38.081C37.9507 38.471 38.4667 39.011 38.8207 39.701V37.784H40.1347V47H38.8207V45.056C38.4247 45.752 37.8937 46.298 37.2277 46.694C36.5617 47.09 35.8207 47.288 35.0047 47.288ZM35.3287 46.145C36.0187 46.145 36.6277 45.986 37.1557 45.668C37.6897 45.344 38.1097 44.9 38.4157 44.336C38.7217 43.766 38.8747 43.118 38.8747 42.392C38.8747 41.66 38.7217 41.012 38.4157 40.448C38.1157 39.884 37.6987 39.443 37.1647 39.125C36.6307 38.801 36.0187 38.639 35.3287 38.639C34.6387 38.639 34.0267 38.801 33.4927 39.125C32.9587 39.443 32.5387 39.884 32.2327 40.448C31.9267 41.012 31.7737 41.66 31.7737 42.392C31.7737 43.118 31.9267 43.766 32.2327 44.336C32.5387 44.9 32.9587 45.344 33.4927 45.668C34.0267 45.986 34.6387 46.145 35.3287 46.145ZM44.0092 47V31.52H45.3232V47H44.0092ZM53.5958 47.288C52.6358 47.288 51.7688 47.081 50.9948 46.667C50.2268 46.253 49.6178 45.677 49.1678 44.939C48.7178 44.201 48.4928 43.352 48.4928 42.392C48.4928 41.426 48.7178 40.577 49.1678 39.845C49.6178 39.107 50.2268 38.531 50.9948 38.117C51.7628 37.703 52.6298 37.496 53.5958 37.496C54.5558 37.496 55.4198 37.703 56.1878 38.117C56.9618 38.531 57.5738 39.107 58.0238 39.845C58.4738 40.577 58.6988 41.426 58.6988 42.392C58.6988 43.352 58.4738 44.201 58.0238 44.939C57.5738 45.677 56.9618 46.253 56.1878 46.667C55.4198 47.081 54.5558 47.288 53.5958 47.288ZM53.5958 46.118C54.3158 46.118 54.9578 45.959 55.5218 45.641C56.0858 45.323 56.5298 44.885 56.8538 44.327C57.1778 43.763 57.3398 43.118 57.3398 42.392C57.3398 41.666 57.1778 41.024 56.8538 40.466C56.5298 39.902 56.0858 39.461 55.5218 39.143C54.9578 38.825 54.3158 38.666 53.5958 38.666C52.8758 38.666 52.2338 38.825 51.6698 39.143C51.1058 39.461 50.6618 39.902 50.3378 40.466C50.0138 41.024 49.8518 41.666 49.8518 42.392C49.8518 43.112 50.0138 43.754 50.3378 44.318C50.6618 44.882 51.1058 45.323 51.6698 45.641C52.2338 45.959 52.8758 46.118 53.5958 46.118ZM62.7236 43.427L62.5976 31.52H63.8756L63.7496 43.427H62.7236ZM63.2366 47.288C63.0686 47.288 62.9126 47.246 62.7686 47.162C62.6306 47.078 62.5196 46.967 62.4356 46.829C62.3516 46.685 62.3096 46.529 62.3096 46.361C62.3096 46.193 62.3516 46.04 62.4356 45.902C62.5196 45.764 62.6306 45.653 62.7686 45.569C62.9126 45.485 63.0686 45.443 63.2366 45.443C63.4046 45.443 63.5576 45.485 63.6956 45.569C63.8336 45.653 63.9446 45.764 64.0286 45.902C64.1126 46.04 64.1546 46.193 64.1546 46.361C64.1546 46.529 64.1126 46.685 64.0286 46.829C63.9446 46.967 63.8336 47.078 63.6956 47.162C63.5576 47.246 63.4046 47.288 63.2366 47.288Z" fill="black"/>
</svg>
