<svg width="80" height="80" viewBox="0 0 80 80" fill="none" xmlns="http://www.w3.org/2000/svg">
<circle cx="40" cy="40" r="40" fill="#3C8694"/>
<path d="M13.7599 47V32.15H15.1279V38.954H23.2369V32.15H24.5959V47H23.2369V40.16H15.1279V47H13.7599ZM33.2736 47.288C32.3076 47.288 31.4436 47.075 30.6816 46.649C29.9256 46.223 29.3316 45.644 28.8996 44.912C28.4676 44.174 28.2516 43.346 28.2516 42.428C28.2516 41.738 28.3746 41.096 28.6206 40.502C28.8726 39.902 29.2206 39.377 29.6646 38.927C30.1086 38.477 30.6246 38.126 31.2126 37.874C31.8006 37.622 32.4276 37.496 33.0936 37.496C34.0056 37.496 34.8156 37.697 35.5236 38.099C36.2376 38.495 36.8016 39.044 37.2156 39.746C37.6356 40.448 37.8576 41.258 37.8816 42.176C37.8816 42.248 37.8786 42.308 37.8726 42.356C37.8726 42.398 37.8666 42.452 37.8546 42.518H29.5566C29.5566 43.238 29.7186 43.874 30.0426 44.426C30.3666 44.978 30.8106 45.413 31.3746 45.731C31.9446 46.043 32.5956 46.199 33.3276 46.199C34.0236 46.199 34.6476 46.055 35.1996 45.767C35.7576 45.473 36.2226 45.053 36.5946 44.507L37.5666 45.029C37.1286 45.743 36.5316 46.298 35.7756 46.694C35.0256 47.09 34.1916 47.288 33.2736 47.288ZM29.6286 41.528H36.5676C36.4896 40.952 36.2886 40.445 35.9646 40.007C35.6406 39.563 35.2296 39.215 34.7316 38.963C34.2396 38.711 33.6996 38.585 33.1116 38.585C32.5056 38.585 31.9536 38.711 31.4556 38.963C30.9576 39.209 30.5466 39.554 30.2226 39.998C29.9046 40.436 29.7066 40.946 29.6286 41.528ZM40.9418 47V31.52H42.2558V47H40.9418ZM46.1274 47V31.52H47.4414V47H46.1274ZM55.7139 47.288C54.7539 47.288 53.8869 47.081 53.1129 46.667C52.3449 46.253 51.7359 45.677 51.2859 44.939C50.8359 44.201 50.6109 43.352 50.6109 42.392C50.6109 41.426 50.8359 40.577 51.2859 39.845C51.7359 39.107 52.3449 38.531 53.1129 38.117C53.8809 37.703 54.7479 37.496 55.7139 37.496C56.6739 37.496 57.5379 37.703 58.3059 38.117C59.0799 38.531 59.6919 39.107 60.1419 39.845C60.5919 40.577 60.8169 41.426 60.8169 42.392C60.8169 43.352 60.5919 44.201 60.1419 44.939C59.6919 45.677 59.0799 46.253 58.3059 46.667C57.5379 47.081 56.6739 47.288 55.7139 47.288ZM55.7139 46.118C56.4339 46.118 57.0759 45.959 57.6399 45.641C58.2039 45.323 58.6479 44.885 58.9719 44.327C59.2959 43.763 59.4579 43.118 59.4579 42.392C59.4579 41.666 59.2959 41.024 58.9719 40.466C58.6479 39.902 58.2039 39.461 57.6399 39.143C57.0759 38.825 56.4339 38.666 55.7139 38.666C54.9939 38.666 54.3519 38.825 53.7879 39.143C53.2239 39.461 52.7799 39.902 52.4559 40.466C52.1319 41.024 51.9699 41.666 51.9699 42.392C51.9699 43.112 52.1319 43.754 52.4559 44.318C52.7799 44.882 53.2239 45.323 53.7879 45.641C54.3519 45.959 54.9939 46.118 55.7139 46.118ZM64.8418 43.427L64.7158 31.52H65.9938L65.8678 43.427H64.8418ZM65.3548 47.288C65.1868 47.288 65.0308 47.246 64.8868 47.162C64.7488 47.078 64.6378 46.967 64.5538 46.829C64.4698 46.685 64.4278 46.529 64.4278 46.361C64.4278 46.193 64.4698 46.04 64.5538 45.902C64.6378 45.764 64.7488 45.653 64.8868 45.569C65.0308 45.485 65.1868 45.443 65.3548 45.443C65.5228 45.443 65.6758 45.485 65.8138 45.569C65.9518 45.653 66.0628 45.764 66.1468 45.902C66.2308 46.04 66.2728 46.193 66.2728 46.361C66.2728 46.529 66.2308 46.685 66.1468 46.829C66.0628 46.967 65.9518 47.078 65.8138 47.162C65.6758 47.246 65.5228 47.288 65.3548 47.288Z" fill="white"/>
</svg>
