<?xml version="1.0" standalone="no"?>
<!DOCTYPE svg PUBLIC "-//W3C//DTD SVG 20010904//EN"
 "http://www.w3.org/TR/2001/REC-SVG-20010904/DTD/svg10.dtd">
<svg version="1.0" xmlns="http://www.w3.org/2000/svg"
 width="1120.000000pt" height="1120.000000pt" viewBox="0 0 1120.000000 1120.000000"
 preserveAspectRatio="xMidYMid meet">
<metadata>
Created by potrace 1.14, written by Peter Selinger 2001-2017
</metadata>
<g transform="translate(0.000000,1120.000000) scale(0.100000,-0.100000)"
fill="#000000" stroke="none">
<path d="M5265 11190 c-43 -18 -79 -71 -112 -167 -19 -54 -36 -107 -38 -117
-3 -10 -9 -33 -14 -50 -9 -26 -85 -311 -95 -356 -2 -8 -11 -42 -20 -76 -8 -33
-18 -71 -20 -85 -2 -13 -5 -24 -6 -24 -2 0 -10 -33 -15 -60 -2 -11 -17 -76
-35 -145 -17 -69 -33 -132 -35 -140 -14 -64 -80 -340 -95 -400 -10 -41 -21
-88 -24 -105 -3 -16 -12 -57 -21 -90 -8 -33 -17 -69 -19 -80 -8 -38 -27 -120
-51 -220 -13 -55 -26 -112 -29 -128 -2 -15 -7 -35 -10 -45 -3 -9 -7 -28 -10
-42 -5 -23 -13 -60 -20 -85 -1 -5 -8 -37 -15 -70 -7 -33 -16 -73 -21 -90 -5
-16 -11 -43 -14 -60 -3 -16 -24 -111 -46 -210 -23 -99 -44 -190 -46 -202 -2
-12 -15 -69 -29 -125 -13 -57 -26 -116 -29 -133 -8 -41 -11 -57 -35 -160 -29
-123 -29 -123 -42 -185 -9 -42 -33 -86 -102 -190 -50 -74 -96 -138 -101 -142
-7 -5 -7 -8 -1 -8 6 0 6 -3 0 -8 -12 -8 -194 -289 -281 -432 -21 -36 -42 -66
-46 -68 -5 -2 -8 -8 -8 -12 0 -5 -24 -49 -53 -97 -51 -85 -156 -267 -232 -403
-66 -119 -232 -464 -270 -560 -21 -52 -43 -108 -50 -125 -13 -32 -88 -253 -91
-270 -1 -5 -9 -35 -18 -66 -9 -31 -18 -66 -21 -77 -2 -11 -10 -47 -19 -79 -8
-32 -18 -71 -22 -88 -4 -16 -8 -32 -9 -35 -4 -18 -18 -88 -20 -105 -7 -47 -27
-192 -31 -220 -9 -56 -11 -317 -3 -359 4 -22 10 -57 13 -78 14 -88 66 -198
117 -249 89 -87 212 -118 328 -82 25 8 51 16 57 17 7 1 19 8 28 15 14 12 16
11 16 -5 0 -11 -5 -35 -10 -54 -6 -19 -13 -55 -16 -80 -3 -25 -8 -48 -11 -53
-2 -4 -6 -17 -9 -30 -2 -12 -6 -32 -9 -45 -3 -12 -7 -30 -9 -41 -2 -10 -7 -35
-10 -56 -4 -20 -8 -41 -11 -45 -3 -5 -7 -21 -10 -37 -5 -31 -23 -120 -84 -398
-23 -104 -49 -224 -57 -265 -22 -102 -21 -99 -33 -150 -5 -25 -12 -56 -15 -70
-6 -32 -63 -300 -78 -365 -6 -27 -13 -57 -14 -65 -1 -8 -7 -37 -13 -65 -6 -27
-14 -65 -16 -84 -3 -19 -8 -38 -12 -44 -3 -6 -7 -20 -9 -31 -2 -19 -6 -38 -17
-91 -5 -19 -46 -214 -52 -245 -2 -8 -4 -15 -5 -15 -1 0 -3 -11 -5 -25 -2 -14
-13 -70 -25 -125 -12 -55 -26 -120 -31 -145 -5 -25 -11 -54 -14 -65 -39 -177
-61 -284 -69 -330 -2 -11 -9 -38 -14 -60 -6 -22 -13 -56 -16 -75 -3 -19 -10
-50 -15 -67 -5 -18 -8 -33 -6 -33 3 0 1 -10 -4 -23 -5 -13 -12 -41 -15 -63 -4
-21 -11 -55 -16 -74 -5 -19 -12 -53 -15 -75 -4 -22 -9 -49 -12 -60 -15 -45
-29 -165 -21 -165 3 0 30 -5 59 -11 30 -6 63 -12 74 -14 11 -2 47 -10 80 -17
33 -8 66 -14 74 -14 13 1 46 132 76 296 3 14 18 88 35 165 17 77 41 192 55
255 13 63 40 192 60 285 20 94 38 178 40 188 2 10 6 26 9 35 3 9 8 33 11 52 3
19 8 42 10 50 2 8 6 26 9 40 2 14 25 122 51 240 26 118 49 226 51 240 3 14 14
67 25 119 22 98 26 120 34 161 3 14 9 40 14 58 5 17 7 32 4 32 -3 0 0 6 6 13
6 8 9 16 6 18 -2 3 0 22 5 44 13 52 50 223 56 255 3 14 7 32 9 40 3 8 7 33 11
55 3 22 8 43 10 46 2 3 6 19 8 35 3 16 8 38 10 49 3 11 18 84 35 163 17 78 45
206 62 285 17 78 33 153 35 167 3 14 7 33 10 42 6 21 15 64 19 93 2 11 4 20 5
20 1 0 3 7 5 15 14 74 33 163 41 193 3 12 7 31 8 42 2 11 9 43 16 70 6 28 13
59 15 70 4 24 14 69 31 138 1 4 2 15 3 25 1 9 16 33 34 52 18 19 59 66 92 105
33 38 65 75 70 81 6 6 26 30 45 54 19 24 40 48 45 54 23 24 152 192 177 230
16 23 28 37 28 32 0 -5 17 16 38 46 20 30 46 66 57 81 30 42 73 100 91 122 8
11 54 74 101 140 101 143 103 145 98 114 -4 -25 -14 -178 -20 -314 -2 -44 -6
-127 -10 -185 -11 -195 -15 -287 -30 -640 -24 -590 -20 -1287 9 -1588 13 -133
41 -310 53 -342 4 -8 7 -17 7 -20 10 -43 32 -100 38 -100 4 0 8 -7 8 -16 0
-17 43 -78 75 -107 43 -38 100 -60 155 -60 165 -1 340 188 539 578 34 66 61
125 61 132 0 7 5 13 12 13 6 0 9 3 6 6 -4 3 6 31 22 62 114 230 297 719 509
1362 149 450 151 456 151 474 0 9 4 16 8 16 4 0 8 8 9 18 1 9 13 55 28 101 15
46 28 91 30 100 2 9 13 45 25 81 12 36 23 72 25 80 5 19 54 191 60 208 3 7 5
14 5 17 1 3 6 19 11 37 23 73 70 234 74 248 1 8 22 78 45 155 36 123 46 160
54 200 1 6 4 15 8 20 3 6 9 26 14 45 11 50 11 50 14 53 1 1 3 9 5 17 2 8 14
49 25 90 12 41 30 109 41 150 11 41 30 111 43 155 13 44 36 127 51 185 32 128
48 166 75 180 17 9 20 8 21 -7 0 -10 3 -29 6 -43 8 -36 7 -171 -3 -275 -15
-172 -10 -585 9 -720 21 -142 120 -283 232 -330 49 -20 152 -27 197 -14 18 6
41 12 52 14 17 4 74 31 121 58 60 35 177 137 259 227 22 25 150 154 283 288
l243 242 0 217 c0 119 -2 214 -4 212 -3 -2 -41 -38 -86 -79 -198 -182 -468
-448 -647 -637 -126 -132 -199 -194 -259 -219 -18 -8 -35 -14 -37 -14 -6 0
-26 48 -33 80 -20 81 -25 457 -10 650 26 324 -2 489 -101 601 -36 40 -97 76
-145 84 -22 4 -35 11 -31 17 3 6 19 61 35 122 16 61 31 119 33 129 3 9 7 26 9
36 3 11 14 54 26 96 12 42 23 84 25 93 1 9 10 44 19 77 9 33 18 67 20 75 2 8
14 53 26 100 12 47 24 92 26 100 2 8 11 42 20 75 9 33 17 67 19 75 2 8 8 35
15 60 7 25 14 52 16 60 1 8 15 60 29 115 14 55 27 107 29 115 3 8 32 123 66
255 34 132 64 248 65 257 5 25 36 141 43 158 7 18 6 16 17 65 10 47 12 54 15
58 1 1 3 9 5 17 12 45 27 107 30 120 2 8 4 15 5 15 1 0 3 7 5 15 2 8 10 45 19
83 66 279 72 477 22 677 -4 15 -23 52 -58 110 -43 74 -147 140 -248 158 -51 9
-169 9 -216 -2 -95 -21 -256 -86 -369 -149 -126 -71 -386 -248 -455 -310 -8
-7 -35 -28 -60 -47 -25 -19 -50 -39 -56 -45 -6 -5 -33 -28 -59 -50 -169 -139
-487 -459 -711 -714 -62 -70 -116 -127 -111 -116 3 6 8 46 12 90 9 118 14 181
20 265 3 41 8 89 10 105 2 17 7 68 10 115 3 47 8 105 10 130 2 25 7 79 10 120
3 41 8 95 10 120 5 53 15 192 20 270 2 30 6 87 9 125 3 39 8 106 11 150 3 44
7 114 10 155 8 103 15 303 15 375 -1 169 -22 231 -92 265 -43 21 -125 26 -163
10z m2097 -1178 c22 -3 56 -60 63 -108 6 -42 7 -193 1 -203 -2 -3 -7 -37 -11
-76 -4 -38 -9 -73 -12 -78 -3 -5 -7 -23 -10 -40 -3 -18 -11 -57 -19 -87 -9
-30 -17 -62 -19 -70 -2 -8 -20 -78 -40 -155 -21 -77 -39 -147 -40 -155 -2 -8
-4 -16 -4 -17 -1 -2 -1 -5 -1 -8 -1 -3 -7 -23 -15 -45 -8 -22 -12 -40 -10 -40
2 0 -3 -22 -10 -48 -17 -57 -144 -546 -151 -582 -3 -14 -8 -34 -11 -45 -4 -11
-8 -24 -9 -30 -1 -5 -21 -82 -43 -170 -23 -88 -44 -167 -46 -175 -2 -8 -17
-68 -35 -133 -17 -64 -33 -127 -36 -140 -9 -37 -12 -52 -14 -54 -3 -4 -6 -13
-15 -58 -4 -22 -11 -47 -15 -55 -5 -8 -11 -31 -14 -52 -3 -20 -12 -56 -20 -80
-7 -23 -26 -92 -41 -153 -15 -60 -30 -117 -33 -125 -3 -8 -6 -19 -7 -25 -21
-83 -48 -182 -53 -191 -4 -7 -32 -39 -62 -71 -58 -64 -120 -137 -133 -159 -4
-7 -45 -63 -90 -123 -45 -60 -90 -120 -99 -133 -9 -13 -38 -52 -65 -88 -62
-84 -259 -363 -264 -376 -2 -5 -39 -62 -81 -126 -43 -65 -78 -120 -78 -122 0
-2 -15 -26 -32 -53 -18 -26 -64 -97 -102 -156 -37 -59 -69 -107 -71 -107 -2 0
26 104 55 205 5 17 12 41 16 55 14 53 137 468 154 525 10 33 23 75 29 93 5 17
8 32 5 32 -2 0 2 13 11 30 8 16 15 31 14 32 -2 4 20 83 36 133 27 83 69 220
71 232 1 7 16 59 34 115 63 205 123 399 127 413 40 148 74 285 77 316 4 43
-23 129 -41 129 -6 0 -13 4 -15 8 -1 4 -18 18 -36 31 -53 37 -137 25 -200 -28
-23 -20 -294 -424 -451 -673 -47 -73 -112 -176 -146 -228 -34 -52 -85 -132
-114 -177 -30 -46 -56 -83 -58 -83 -4 0 1 84 12 220 2 19 6 76 9 125 4 50 9
110 11 135 2 25 7 86 10 135 3 50 8 104 10 120 2 17 6 71 10 120 3 50 8 106
10 125 2 19 7 73 10 120 4 47 9 101 11 120 3 19 5 41 4 48 0 6 0 18 0 25 -1 6
1 28 4 47 2 19 7 71 11 115 3 44 8 100 10 125 2 25 7 83 11 130 3 47 8 96 9
110 2 14 3 30 4 37 1 11 163 214 236 297 6 6 50 58 100 116 238 278 562 608
731 745 27 22 56 47 64 55 18 17 78 65 120 95 15 11 54 40 87 65 158 124 369
246 503 293 95 33 118 36 192 29z m-2256 -529 c-3 -27 -8 -77 -11 -113 -6 -65
-8 -96 -20 -245 -3 -44 -8 -96 -10 -115 -2 -19 -6 -69 -10 -110 -3 -41 -8 -97
-11 -125 -2 -27 -7 -81 -9 -120 -3 -38 -7 -88 -9 -110 -2 -22 -4 -52 -5 -66
-1 -14 -22 -52 -47 -85 -25 -32 -56 -72 -67 -87 -12 -16 -27 -34 -32 -40 -6
-7 -26 -33 -45 -59 -18 -27 -36 -48 -40 -48 -4 0 4 42 16 93 13 50 25 103 28
117 2 14 11 55 20 91 8 37 17 78 20 90 2 13 10 47 16 74 6 28 13 57 15 65 2 8
13 53 24 100 11 47 22 97 25 110 6 29 56 246 97 415 16 66 31 133 34 149 12
75 28 90 21 19z m-141 -1670 c-2 -21 -5 -65 -8 -98 -4 -33 -9 -96 -12 -140 -3
-44 -8 -100 -10 -125 -2 -25 -7 -79 -10 -120 -7 -88 -13 -168 -20 -247 -6 -66
-12 -142 -20 -258 -3 -44 -8 -107 -11 -140 -3 -33 -7 -89 -10 -125 -2 -36 -6
-90 -8 -120 -3 -30 -7 -91 -10 -136 -3 -44 -8 -107 -10 -140 -3 -32 -8 -99
-11 -149 -8 -112 -10 -119 -51 -178 -19 -26 -34 -49 -34 -52 0 -3 -5 -11 -11
-18 -6 -7 -57 -79 -114 -162 -133 -192 -147 -213 -162 -230 -7 -7 -13 -16 -13
-20 0 -3 -5 -11 -10 -18 -6 -7 -91 -121 -190 -254 -99 -134 -181 -243 -183
-243 -3 0 2 26 9 58 7 31 15 68 18 82 2 14 23 111 46 215 23 105 44 201 46
215 3 14 9 41 14 60 5 19 11 49 14 65 4 24 41 189 62 278 5 22 9 43 19 92 5
22 9 45 11 50 1 6 9 42 18 80 24 114 25 117 42 190 9 39 16 78 16 87 0 10 4
20 9 23 5 4 7 10 4 14 -2 5 2 30 9 57 8 27 19 74 25 104 6 30 13 64 16 75 3
11 14 63 26 115 11 52 22 104 25 115 2 11 7 36 10 55 3 19 8 39 11 43 3 5 7
23 10 40 7 41 11 62 13 62 1 0 3 9 5 20 2 11 7 36 11 55 5 19 8 40 9 45 1 6 4
20 8 31 4 12 10 35 12 50 14 94 34 143 95 229 102 145 292 405 295 405 1 0 1
-17 0 -37z m675 -1280 c-10 -32 -28 -92 -40 -133 -12 -41 -26 -86 -31 -100 -5
-14 -11 -34 -14 -45 -4 -19 -18 -65 -65 -220 -12 -38 -23 -77 -25 -85 -2 -8
-12 -43 -23 -77 -11 -35 -18 -63 -15 -63 3 0 0 -7 -7 -15 -7 -8 -10 -15 -6
-15 3 0 0 -16 -8 -35 -8 -19 -13 -35 -10 -35 3 0 2 -6 -3 -12 -4 -7 -8 -17
-10 -23 -1 -5 -9 -35 -17 -65 -17 -61 -56 -205 -62 -232 -2 -10 -6 -27 -9 -39
-2 -11 -6 -28 -9 -37 -3 -9 -7 -28 -10 -42 -2 -14 -18 -86 -34 -160 -57 -254
-61 -333 -19 -420 30 -64 112 -107 186 -96 51 7 81 17 81 27 0 5 6 9 14 9 34
0 194 205 340 437 27 43 74 115 103 161 30 46 59 94 65 108 6 13 15 24 20 24
4 0 8 6 8 13 0 7 8 22 18 33 9 11 23 30 30 42 6 12 18 32 25 44 6 12 16 27 20
32 4 6 52 77 105 157 176 266 241 355 227 314 -3 -11 -19 -67 -35 -125 -16
-58 -35 -123 -41 -145 -6 -22 -11 -41 -11 -42 1 -2 -5 -21 -13 -43 -8 -22 -12
-40 -8 -40 3 0 1 -6 -4 -12 -6 -7 -13 -26 -17 -43 -7 -31 -11 -45 -91 -315
-25 -85 -55 -186 -66 -225 -11 -38 -27 -85 -35 -104 -8 -18 -13 -36 -10 -39 3
-2 1 -13 -5 -24 -6 -11 -12 -27 -14 -36 -3 -19 -8 -34 -100 -327 -37 -115 -69
-217 -72 -225 -3 -8 -7 -19 -8 -25 -6 -24 -136 -412 -144 -430 -5 -11 -28 -76
-51 -145 -24 -69 -47 -133 -52 -143 -5 -10 -11 -27 -13 -37 -2 -11 -10 -34
-18 -52 -8 -18 -32 -78 -52 -133 -21 -55 -46 -119 -56 -142 -11 -23 -19 -45
-19 -48 0 -29 -222 -504 -293 -627 -46 -81 -137 -211 -143 -205 -3 3 -7 13 -9
24 -2 10 -4 19 -5 21 -5 5 -20 102 -25 152 -1 14 -5 50 -9 80 -32 286 -36 865
-10 1570 10 274 22 526 29 640 2 36 7 110 10 165 13 248 21 382 30 505 3 47 7
111 10 142 2 32 7 63 11 69 5 8 3 9 -6 4 -8 -5 -11 -4 -7 2 3 5 9 45 12 89 4
63 11 86 33 119 15 22 30 42 33 45 3 3 12 16 19 29 7 14 17 30 22 35 5 6 32
47 60 91 28 43 57 85 64 93 8 7 14 19 14 27 0 7 3 15 8 17 8 4 38 48 221 336
29 45 54 82 56 82 2 0 -5 -26 -15 -57z m-1562 -78 c-15 -69 -30 -135 -32 -147
-3 -13 -7 -32 -10 -43 -2 -11 -14 -65 -26 -120 -11 -55 -25 -116 -30 -135 -5
-19 -12 -51 -15 -70 -3 -19 -12 -62 -20 -95 -34 -147 -44 -192 -49 -218 -3
-15 -7 -35 -10 -45 -3 -9 -7 -28 -10 -42 -2 -14 -9 -45 -15 -70 -5 -25 -13
-61 -16 -80 -3 -19 -8 -43 -11 -52 -3 -9 -7 -25 -9 -35 -2 -10 -18 -83 -35
-163 -18 -80 -33 -154 -35 -165 -2 -11 -15 -72 -30 -135 -25 -109 -30 -130
-39 -182 -2 -13 -10 -45 -16 -73 -12 -51 -17 -74 -24 -110 -31 -154 -34 -161
-104 -226 -69 -63 -155 -125 -205 -147 -36 -15 -34 -16 -47 9 -11 20 -14 29
-29 104 -13 67 -4 311 15 410 2 10 6 37 9 60 3 22 8 47 10 55 2 8 7 30 10 47
21 126 107 427 162 573 3 8 7 20 9 25 3 14 70 177 95 233 41 92 173 349 240
470 38 67 69 127 69 132 0 6 4 10 9 10 5 0 13 10 17 22 3 12 26 52 49 88 23
36 46 76 49 88 4 12 10 22 14 22 4 0 23 29 42 65 19 36 38 65 41 65 3 0 -7
-56 -23 -125z"/>
</g>
</svg>
