<svg width="36" height="70" viewBox="0 0 36 70" fill="none" xmlns="http://www.w3.org/2000/svg">
<g clip-path="url(#clip0_35_367)">
<path d="M0.903198 69.5484C0.903198 69.5484 15.0361 2.79652 16.346 0.944752C17.6558 -0.907015 10.2792 59.7606 14.8982 57.2031C19.5172 54.646 28.1349 18.4043 29.9273 11.879C31.7198 5.35371 28.8243 4.56009 22.4128 9.93907C16.0012 15.318 6.43044 29.2975 4.00554 35.4229C1.58062 41.5484 1.37181 48.6974 6.21164 43.8C11.0515 38.9025 18.8755 25.9678 19.862 24.5768C20.8484 23.1859 21.5401 21.7306 20.5513 25.0177C19.5626 28.3048 17.3112 35.5891 17.0354 37C16.7596 38.4109 15.3368 43.0844 18.4391 38.2345C21.5415 33.3847 21 34.0427 24.1613 29.7794C27.3226 25.5161 28.2258 27.3226 28 30.0322C27.7742 32.7419 27.9141 33.4481 27.9448 34.1816C28 35.5 28.8232 37.6361 31.7191 34.4559C33.5 32.5 36.5 29.7794 36.5 29.7794" stroke="black" stroke-width="2"/>
</g>
<defs>
<clipPath id="clip0_35_367">
<rect width="35.6774" height="70" fill="white"/>
</clipPath>
</defs>
</svg>
