<svg width="80" height="80" viewBox="0 0 80 80" fill="none" xmlns="http://www.w3.org/2000/svg">
<circle cx="40" cy="40" r="40" fill="#48AD7C"/>
<path d="M45.2083 21.25H31.4C30.3969 21.25 29.5833 22.0635 29.5833 23.0667V30.6281H45.2083V21.25Z" fill="#169154"/>
<path d="M29.5833 49.4313V56.9334C29.5833 57.9365 30.3969 58.75 31.3989 58.75H45.2083V49.4313H29.5833Z" fill="#18482A"/>
<path d="M29.5833 30.6282H45.2083V40.0053H29.5833V30.6282Z" fill="#0C8045"/>
<path d="M29.5833 40.0052H45.2083V49.4323H29.5833V40.0052Z" fill="#17472A"/>
<path d="M59.0166 21.25H45.2083V30.6281H60.8333V23.0667C60.8333 22.0635 60.0198 21.25 59.0166 21.25Z" fill="#29C27F"/>
<path d="M45.2083 49.4313V58.75H59.0177C60.0198 58.75 60.8333 57.9365 60.8333 56.9344V49.4323H45.2083V49.4313Z" fill="#27663F"/>
<path d="M45.2083 30.6282H60.8333V40.0053H45.2083V30.6282Z" fill="#19AC65"/>
<path d="M45.2083 40.0052H60.8333V49.4323H45.2083V40.0052Z" fill="#129652"/>
<path d="M38.249 50.4167H20.9177C19.9511 50.4167 19.1667 49.6323 19.1667 48.6657V31.3344C19.1667 30.3677 19.9511 29.5834 20.9177 29.5834H38.249C39.2156 29.5834 40 30.3677 40 31.3344V48.6657C40 49.6323 39.2156 50.4167 38.249 50.4167Z" fill="#0C7238"/>
<path d="M25.2156 34.7916H27.701L29.7177 38.702L31.849 34.7916H34.1708L30.9719 40L34.2437 45.2083H31.7948L29.5969 41.1145L27.4083 45.2083H24.9229L28.249 39.9812L25.2156 34.7916Z" fill="white"/>
</svg>
