<svg width="32" height="32" viewBox="0 0 32 32" fill="none" xmlns="http://www.w3.org/2000/svg">
<path d="M16 3.19995C8.9312 3.19995 3.2 8.93115 3.2 16C3.2 21.9978 7.33013 27.0165 12.8981 28.4053C12.8384 28.2325 12.8 28.032 12.8 27.7834V25.5957C12.2805 25.5957 11.4101 25.5957 11.1915 25.5957C10.3157 25.5957 9.53706 25.2191 9.15946 24.5194C8.74026 23.7418 8.66773 22.5525 7.6288 21.825C7.32053 21.5829 7.5552 21.3066 7.9104 21.344C8.5664 21.5296 9.1104 21.9797 9.6224 22.6474C10.1323 23.3162 10.3723 23.4677 11.3248 23.4677C11.7867 23.4677 12.4779 23.441 13.1285 23.3386C13.4784 22.4501 14.0832 21.6319 14.8224 21.2458C10.56 20.8074 8.52586 18.6869 8.52586 15.808C8.52586 14.5685 9.05386 13.3696 9.95093 12.3594C9.65653 11.3568 9.2864 9.31195 10.064 8.53328C11.9819 8.53328 13.1413 9.77702 13.4197 10.113C14.3755 9.78555 15.4251 9.59995 16.528 9.59995C17.6331 9.59995 18.6869 9.78555 19.6448 10.1152C19.92 9.78128 21.0805 8.53328 23.0027 8.53328C23.7835 9.31302 23.4091 11.3664 23.1115 12.3669C24.0032 13.3749 24.528 14.5706 24.528 15.808C24.528 18.6847 22.4971 20.8042 18.2411 21.2447C19.4123 21.8559 20.2667 23.5733 20.2667 24.8671V27.7834C20.2667 27.8944 20.2421 27.9744 20.2293 28.0693C25.2171 26.321 28.8 21.585 28.8 16C28.8 8.93115 23.0688 3.19995 16 3.19995Z" fill="black"/>
</svg>
