<svg width="80" height="80" viewBox="0 0 80 80" fill="none" xmlns="http://www.w3.org/2000/svg">
<circle cx="40" cy="40" r="40" fill="#EDFBFF"/>
<path d="M9.8 35.3C9.7 35.3 9.6 35.2 9.7 35.1L10.4 34.3C10.5 34.2 10.6 34.1 10.7 34.1H21.8C21.9 34.1 22 34.2 21.9 34.3L21.4 35.1C21.3 35.2 21.2 35.3 21.1 35.3H9.8ZM5.1 38.2C5 38.2 5 38.1 5 38L5.7 37.2C5.7 37.1 5.9 37 6 37H20.2C20.3 37 20.4 37.1 20.4 37.2L20.2 37.9C20.2 38 20 38.1 19.9 38.1L5.1 38.2ZM12.7 41C12.6 41 12.5 40.9 12.6 40.8L13 40.1C13.1 40 13.2 39.9 13.3 39.9H19.5C19.6 39.9 19.7 40 19.7 40.1L19.6 40.8C19.6 40.9 19.5 41 19.4 41H12.7ZM45 34.7L39.8 36.1C39.3 36.2 39.3 36.3 38.9 35.8C38.4 35.3 38.1 34.9 37.4 34.6C35.4 33.6 33.5 33.9 31.8 35.1C29.7 36.5 28.6 38.5 28.6 41C28.6 43.5 30.3 45.5 32.8 45.9C34.9 46.2 36.7 45.4 38.1 43.8C38.4 43.5 38.6 43.1 38.9 42.6H32.9C32.2 42.6 32.1 42.2 32.3 41.7C32.7 40.7 33.5 39.1 33.9 38.3C34 38.1 34.2 37.8 34.7 37.8H46C45.9 38.6 45.9 39.5 45.8 40.3C45.5 42.5 44.6 44.6 43.2 46.4C41 49.4 38 51.2 34.3 51.7C31.2 52.1 28.4 51.5 25.9 49.6C23.6 47.9 22.3 45.5 21.9 42.7C21.5 39.3 22.5 36.3 24.5 33.6C26.7 30.7 29.6 28.9 33.2 28.2C36.1 27.7 38.9 28 41.5 29.7C43.2 30.8 44.3 32.3 45.1 34.1C45.5 34.5 45.4 34.6 45 34.7Z" fill="#00ACD7"/>
<path d="M55.3 52C52.5 51.9 49.9 51.1 47.7 49.3C45.9 47.7 44.7 45.7 44.3 43.3C43.7 39.8 44.7 36.7 46.8 33.9C49.1 30.9 51.8 29.4 55.5 28.7C58.7 28.1 61.7 28.5 64.4 30.3C66.9 32 68.4 34.3 68.8 37.2C69.3 41.4 68.1 44.8 65.2 47.8C63.1 49.9 60.6 51.2 57.7 51.8C57 51.8 56.1 51.9 55.3 52ZM62.7 39.4C62.7 39 62.7 38.7 62.6 38.4C62 35.3 59.2 33.6 56.2 34.3C53.3 35 51.4 36.8 50.7 39.7C50.1 42.1 51.3 44.6 53.6 45.6C55.3 46.3 57 46.3 58.7 45.4C61.2 44 62.6 42 62.7 39.4Z" fill="#00ACD7"/>
</svg>
