<svg width="80" height="80" viewBox="0 0 80 80" fill="none" xmlns="http://www.w3.org/2000/svg">
<circle cx="40" cy="40" r="40" fill="#E1F2FF"/>
<g clip-path="url(#clip0_164_579)">
<path d="M39.5174 65.9919C31.9855 65.857 24.8924 62.4624 20.0596 56.6822C17.6059 53.7459 15.82 50.3009 14.8466 46.6024C13.8148 42.6244 13.7205 38.4692 14.5931 34.4571C15.2789 31.3079 16.5399 28.3292 18.3176 25.6464C20.5683 22.2615 23.5729 19.4421 27.1105 17.419C29.8698 15.8362 32.9085 14.7784 36.0561 14.2957C38.7049 13.8976 41.4056 13.8976 44.0544 14.312C47.7529 14.8954 51.2141 16.2425 54.3455 18.316C56.2419 19.5689 58.018 21.1094 59.5163 22.8189C62.3519 26.0347 64.349 29.9022 65.3224 34.0834C66.1934 37.7981 66.2275 41.7859 65.4069 45.5429C64.18 51.1719 61.1071 56.2402 56.6888 59.9387C53.7524 62.3925 50.3074 64.1784 46.6008 65.1517C44.992 65.5742 43.3589 65.8375 41.6413 65.948C41.0579 65.9821 40.4729 65.9984 39.8895 66.0065L39.5174 65.9984V65.9919ZM24.5121 51.5099C24.7071 51.4595 24.8761 51.3652 25.011 51.2222C25.1556 51.0874 25.2564 50.9086 25.3165 50.7234C25.3425 50.6307 25.3425 50.3334 25.3506 45.603C25.3588 41.0075 25.3669 40.559 25.3929 40.3217C25.4611 39.6701 25.5619 39.2135 25.7065 38.7552C25.9259 38.1036 26.1973 37.6372 26.5873 37.231C26.8928 36.9174 27.1544 36.7224 27.5265 36.5452C27.8743 36.3844 28.2464 36.2739 28.6185 36.2235C28.872 36.1894 29.4473 36.1731 29.6926 36.1975C30.8529 36.3324 31.8848 36.9677 32.5283 37.9492C32.8841 38.4904 33.1116 39.0916 33.2303 39.8277L33.2725 40.0569L33.2806 45.3381C33.2888 50.374 33.2888 50.6194 33.3148 50.7217C33.3733 50.9086 33.4756 51.0776 33.6105 51.2125C33.7291 51.3392 33.8721 51.4319 34.0428 51.492C34.1533 51.5261 34.1874 51.5342 34.4068 51.5342C34.7025 51.5505 34.9999 51.4416 35.203 51.2206C35.3899 51.0435 35.4988 50.8144 35.5329 50.569C35.541 50.4764 35.5491 48.8936 35.5491 45.356C35.5491 42.0134 35.5491 40.2096 35.5654 40.091C35.6678 39.0494 36.048 38.1702 36.6996 37.4422C37.0896 36.9937 37.699 36.5956 38.2743 36.3925C38.7309 36.2316 39.129 36.1731 39.6376 36.1894C40.2974 36.2154 40.8304 36.334 41.3731 36.5956C41.9825 36.8832 42.4814 37.3317 42.821 37.8826C43.2013 38.5261 43.4223 39.3207 43.4645 40.2356C43.4726 40.3461 43.4905 41.2935 43.5149 42.3432C43.5653 44.5094 43.5653 44.6459 43.5994 45.0261C43.7603 46.7275 44.2673 48.1152 45.1399 49.2154C45.3349 49.4526 45.8175 49.9352 46.045 50.1205C46.9843 50.8647 48.0925 51.323 49.3633 51.492C49.7435 51.5424 50.4634 51.5602 50.8355 51.518C52.5629 51.3409 54.1538 50.5186 55.2035 49.2495C56.016 48.2761 56.5149 47.1077 56.7278 45.7037C56.8301 45.044 56.8204 45.3901 56.8301 40.2697C56.8383 35.0307 56.8464 35.4532 56.7115 35.1835C56.5669 34.904 56.3053 34.709 55.9916 34.6424C55.6861 34.5741 55.366 34.6164 55.0946 34.7772C54.8753 34.904 54.6803 35.1672 54.612 35.4289C54.5958 35.4971 54.586 36.4705 54.5779 40.2454C54.5698 45.4762 54.5779 45.0781 54.4593 45.6794C54.0693 47.6684 52.7075 48.9797 50.7104 49.2771C50.3464 49.3112 49.9743 49.3112 49.6021 49.2609C48.6028 49.1081 47.7821 48.71 47.1565 48.0584C46.4366 47.3044 46.006 46.2887 45.8533 44.953C45.8191 44.6231 45.8029 44.1145 45.7606 42.3286C45.7265 40.4745 45.7103 40.052 45.6583 39.6376C45.3788 37.2082 44.186 35.346 42.3059 34.3986C41.5519 34.0184 40.7231 33.8055 39.8765 33.7632C38.6838 33.6869 37.413 34.0249 36.2544 34.7204C35.5768 35.1185 34.9853 35.6434 34.4945 36.2527L34.41 36.3632L34.3515 36.2787C34.1988 36.0756 34.0298 35.8887 33.8429 35.7116C32.8533 34.7724 31.4558 34.1451 29.9835 33.9761C29.5188 33.942 29.0443 33.9339 28.5779 33.9761C27.1983 34.1289 26.1063 34.5936 25.2011 35.424C24.1595 36.3632 23.4738 37.8111 23.2203 39.597C23.1016 40.4436 23.1016 40.5362 23.1016 45.9101L23.1098 50.6405L23.1601 50.7754C23.2788 51.1394 23.5664 51.4107 23.9385 51.5115C24.0994 51.5537 24.3448 51.5537 24.5138 51.5115L24.5121 51.5099ZM50.4943 32.3072C51.0695 32.2049 51.5261 31.7824 51.6789 31.2152C51.7211 31.004 51.7293 30.783 51.6951 30.5636C51.5846 30.0387 51.2125 29.6162 50.7055 29.4456C49.7484 29.1239 48.7588 29.8437 48.7669 30.8512C48.7669 30.9699 48.775 31.0885 48.7929 31.1649C48.9619 31.9351 49.7078 32.4421 50.4943 32.3072V32.3072ZM44.7141 32.0099C45.0196 31.9254 45.2731 31.7222 45.408 31.4346C45.5104 31.2315 45.5348 31.0966 45.5526 30.6904C45.5786 29.4879 46.0613 28.3374 46.89 27.4664C47.5498 26.7725 48.4224 26.324 49.3698 26.1972C49.6915 26.1469 50.3171 26.1387 50.6308 26.181C51.2986 26.2736 51.8918 26.4946 52.4166 26.8326C52.9415 27.1804 53.4404 27.7036 53.7881 28.2707C54.2285 28.9906 54.4901 29.9217 54.4999 30.7164C54.4999 30.9276 54.5259 31.1145 54.5763 31.2754C54.872 32.2227 56.1753 32.317 56.6075 31.42C56.7261 31.1827 56.7424 31.0982 56.7424 30.666C56.7424 30.2337 56.7164 29.9721 56.6498 29.548C56.1753 26.7384 54.1196 24.5804 51.3945 24.0376C50.946 23.9352 50.4894 23.9027 50.0409 23.919C47.5449 23.8767 45.2504 25.2564 44.108 27.4647C43.6091 28.4219 43.3378 29.4879 43.3118 30.562C43.2858 31.1372 43.3881 31.4671 43.6758 31.7385C43.9553 32.0099 44.3436 32.1106 44.7174 32.0099H44.7141Z" fill="url(#paint0_linear_164_579)"/>
</g>
<defs>
<linearGradient id="paint0_linear_164_579" x1="55.4375" y1="59.4999" x2="24.5625" y2="18.8749" gradientUnits="userSpaceOnUse">
<stop stop-color="#396EB0"/>
<stop offset="1" stop-color="#4386B6"/>
</linearGradient>
<clipPath id="clip0_164_579">
<rect width="52" height="52" fill="white" transform="translate(14 14)"/>
</clipPath>
</defs>
</svg>
