<svg width="80" height="80" viewBox="0 0 80 80" fill="none" xmlns="http://www.w3.org/2000/svg">
<circle cx="40" cy="40" r="40" fill="#ECECEA"/>
<g clip-path="url(#clip0_164_580)">
<path fill-rule="evenodd" clip-rule="evenodd" d="M57.1431 20.7144H22.8572C20.6476 20.7144 20 21.4273 20 23.5714V56.4286C20 58.5727 20.6923 59.2858 22.8572 59.2858H57.1431C59.3078 59.2858 60.0002 58.6176 60.0002 56.4286V23.5714C60 21.472 59.2184 20.7144 57.1431 20.7144ZM32.8572 55.0002H24.2856V25.0001H30V39.2859H30.0001V40.0002C30.0001 41.1838 30.9595 42.1431 32.1429 42.1431H32.8572V55.0002V55.0002ZM35.7143 55.0002V42.143H36.4286C37.6122 42.143 38.5715 41.1836 38.5715 40.0001V25.0001H41.4286V39.2859H41.4288V40.0002C41.4288 41.1838 42.3882 42.1431 43.5717 42.1431H44.286V55.0003H35.7143V55.0002ZM55.7144 55.0002H47.143V42.143H47.8573C49.0408 42.143 50.0002 41.1836 50.0002 40.0001V39.2857V25.0001H55.7144V55.0002Z" fill="black"/>
</g>
<defs>
<clipPath id="clip0_164_580">
<rect width="40" height="40" fill="white" transform="translate(20 20)"/>
</clipPath>
</defs>
</svg>
