<svg width="80" height="80" viewBox="0 0 80 80" fill="none" xmlns="http://www.w3.org/2000/svg">
<circle cx="40" cy="40" r="40" fill="#FFD6C1"/>
<path d="M23.3333 39C23.3333 49.3552 31.7281 57.75 42.0833 57.75C52.4386 57.75 60.8333 49.3552 60.8333 39H42.0833H23.3333Z" fill="#DC4C2C"/>
<path d="M42.0833 20.25V39H60.8333C60.8333 28.6448 52.4386 20.25 42.0833 20.25Z" fill="#F7A278"/>
<path d="M42.0833 20.25C31.7281 20.25 23.3333 28.6448 23.3333 39H42.0833V20.25Z" fill="#C06346"/>
<path d="M38.2489 49.4167H20.9177C19.951 49.4167 19.1667 48.6323 19.1667 47.6657V30.3344C19.1667 29.3677 19.951 28.5834 20.9177 28.5834H38.2489C39.2156 28.5834 40 29.3677 40 30.3344V47.6657C40 48.6323 39.2156 49.4167 38.2489 49.4167Z" fill="#9B341F"/>
<path d="M30.2844 33.8042H25.4167V44.2209H27.525V40.5532H29.8958C31.85 40.5532 33.4344 38.9688 33.4344 37.0146V36.9542C33.4344 35.2146 32.0239 33.8042 30.2844 33.8042ZM31.2187 37.2896C31.2187 38.1844 30.4927 38.9105 29.5979 38.9105H27.525V35.4469H29.5979C30.4927 35.4469 31.2187 36.173 31.2187 37.0677V37.2896Z" fill="white"/>
</svg>
